<svg id="svg" xmlns="http://www.w3.org/2000/svg" xmlns:xlink="http://www.w3.org/1999/xlink" width="400" height="565.1612903225806" viewBox="0, 0, 400,565.1612903225806"><g id="svgg"><path id="path0" d="M140.215 1.713 C 134.428 2.635,122.039 5.959,120.859 6.906 C 120.385 7.286,118.837 7.764,117.418 7.967 C 105.224 9.714,62.593 35.911,60.610 42.877 C 59.847 45.558,59.340 46.032,57.169 46.092 C 55.769 46.131,54.140 46.228,53.548 46.308 C 52.279 46.478,52.077 49.032,53.333 49.032 C 53.806 49.032,54.194 49.779,54.194 50.693 C 54.194 52.155,53.862 52.258,51.414 51.556 C 47.597 50.461,43.535 53.980,45.893 56.339 C 46.673 57.119,47.300 58.407,47.284 59.201 C 47.260 60.510,47.159 60.518,46.209 59.280 C 43.945 56.329,37.519 59.383,38.040 63.163 C 38.200 64.329,37.712 65.015,36.559 65.240 C 34.547 65.632,29.264 70.802,29.211 72.430 C 29.191 73.045,27.990 74.516,26.542 75.699 C 23.200 78.429,16.952 87.499,17.643 88.617 C 17.931 89.082,17.714 89.462,17.162 89.462 C 16.540 89.462,16.349 90.225,16.660 91.464 C 17.073 93.111,16.831 93.454,15.289 93.399 C 12.348 93.296,1.557 119.090,1.551 126.239 C 1.549 127.778,1.200 129.252,0.774 129.516 C -1.586 130.974,0.322 178.065,2.741 178.065 C 3.190 178.065,3.332 178.774,3.056 179.642 C 1.980 183.033,9.024 199.025,11.328 198.422 C 13.094 197.961,13.381 198.748,11.963 200.166 C 10.963 201.166,13.214 205.591,14.723 205.591 C 15.141 205.591,15.483 206.075,15.482 206.667 C 15.481 207.649,19.775 212.324,30.108 222.590 C 32.237 224.705,35.237 226.977,36.774 227.638 C 38.312 228.299,39.570 229.209,39.570 229.659 C 39.570 231.496,43.094 232.449,44.657 231.034 C 46.423 229.437,47.312 230.039,47.312 232.832 C 47.312 234.265,47.803 234.839,49.032 234.839 C 49.978 234.839,51.547 235.633,52.517 236.603 C 53.675 237.761,54.870 238.181,55.992 237.825 C 57.005 237.503,59.131 238.026,61.201 239.105 C 63.265 240.181,68.420 241.450,73.775 242.202 C 78.767 242.903,83.758 243.704,84.867 243.982 C 86.236 244.326,86.886 244.113,86.895 243.319 C 86.905 242.423,87.065 242.398,87.584 243.214 C 89.055 245.531,128.860 247.757,134.194 245.821 C 135.376 245.391,140.099 245.062,144.688 245.089 C 149.300 245.116,153.266 244.758,153.556 244.289 C 154.391 242.938,155.462 243.302,155.931 245.097 C 156.226 246.225,156.003 246.614,155.230 246.318 C 153.941 245.823,151.034 250.759,151.844 252.068 C 152.127 252.527,151.839 252.903,151.203 252.903 C 150.567 252.903,150.009 253.581,149.965 254.409 C 149.920 255.237,149.450 257.999,148.920 260.548 C 145.342 277.762,153.289 307.097,161.531 307.097 C 162.488 307.097,162.634 308.128,162.235 312.043 C 160.847 325.631,160.683 329.774,161.259 336.689 C 161.845 343.733,162.026 344.258,164.168 345.176 C 165.424 345.714,166.578 346.235,166.732 346.332 C 166.886 346.430,167.103 357.190,167.214 370.244 L 167.417 393.978 147.857 393.978 L 128.298 393.978 127.070 396.440 C 126.345 397.894,125.768 401.987,125.661 406.443 L 125.480 413.985 127.643 413.572 C 128.951 413.322,129.976 413.600,130.235 414.275 C 130.492 414.944,132.487 415.495,135.224 415.652 L 139.785 415.914 140.041 421.290 L 140.297 426.667 133.159 426.724 C 129.234 426.756,119.975 426.733,112.585 426.672 C 100.855 426.577,99.080 426.742,98.607 427.976 C 97.827 430.007,97.883 430.108,99.785 430.108 C 100.731 430.108,101.505 430.676,101.505 431.371 C 101.505 432.140,101.001 432.441,100.215 432.139 C 99.096 431.710,98.925 433.797,98.925 447.838 L 98.925 464.031 101.280 466.055 L 103.635 468.079 129.022 467.803 L 154.409 467.527 154.652 476.218 L 154.896 484.909 148.681 485.487 C 141.093 486.192,141.901 485.151,141.315 494.975 L 140.822 503.226 146.755 503.239 C 155.373 503.258,155.023 502.629,155.155 518.320 L 155.269 531.897 157.419 532.221 C 162.235 532.946,180.708 532.500,182.354 531.619 C 184.102 530.684,184.106 530.445,184.076 425.893 C 184.059 368.260,184.290 320.469,184.588 319.692 C 185.048 318.495,186.643 318.280,195.036 318.280 C 203.308 318.280,204.781 318.473,203.967 319.454 C 202.525 321.192,203.021 559.287,204.468 559.769 C 205.033 559.957,205.260 560.723,204.973 561.470 C 204.180 563.536,207.129 565.161,211.672 565.161 C 220.294 565.161,219.853 571.685,219.355 451.613 C 219.118 394.602,219.057 347.488,219.219 346.914 C 219.647 345.399,222.179 344.804,228.085 344.832 C 232.545 344.854,233.366 344.614,233.741 343.181 C 233.982 342.260,234.483 341.505,234.854 341.505 C 236.073 341.505,235.403 315.719,234.164 314.954 C 232.715 314.058,233.656 311.667,236.746 308.387 C 239.192 305.792,243.441 297.807,243.441 295.808 C 243.441 295.217,244.171 293.935,245.064 292.959 C 249.622 287.971,250.572 259.185,246.452 250.925 C 245.617 249.251,245.335 247.259,245.677 245.439 C 246.212 242.587,247.742 241.425,247.742 243.871 C 247.742 244.902,249.027 245.161,254.143 245.161 C 257.663 245.161,260.783 245.548,261.075 246.022 C 261.804 247.201,275.871 247.134,276.604 245.948 C 276.970 245.357,280.376 245.080,285.902 245.192 C 301.940 245.517,331.183 241.695,331.183 239.274 C 331.183 238.939,332.731 238.812,334.624 238.992 C 337.345 239.252,338.065 239.032,338.065 237.940 C 338.065 236.641,339.805 236.159,343.299 236.490 C 344.049 236.561,346.334 235.092,348.376 233.225 C 350.418 231.359,352.593 230.025,353.210 230.262 C 354.971 230.938,361.290 226.994,361.290 225.218 C 361.290 224.149,361.933 223.656,363.325 223.656 C 366.126 223.656,369.892 220.501,369.892 218.154 C 369.892 216.631,370.582 216.047,373.118 215.421 C 375.505 214.831,376.416 214.120,376.619 212.688 C 376.770 211.624,377.457 210.753,378.146 210.753 C 379.540 210.753,381.298 206.904,380.865 204.799 C 380.688 203.939,381.524 203.104,383.144 202.521 C 385.097 201.820,386.000 200.700,386.959 197.790 C 387.650 195.694,388.593 193.732,389.056 193.430 C 390.249 192.652,394.170 181.591,394.369 178.443 C 394.461 176.995,394.837 175.322,395.205 174.726 C 400.164 166.703,398.690 126.963,393.025 115.926 C 392.603 115.104,392.258 113.495,392.258 112.349 C 392.258 111.204,391.315 108.392,390.163 106.101 C 389.010 103.810,387.221 99.903,386.186 97.419 C 385.151 94.935,383.962 92.903,383.543 92.903 C 383.124 92.903,382.158 91.344,381.396 89.439 C 380.633 87.534,379.359 85.502,378.564 84.923 C 377.768 84.344,376.633 82.677,376.040 81.217 C 375.447 79.757,373.874 77.371,372.543 75.914 C 371.212 74.457,369.302 71.974,368.298 70.396 C 367.295 68.818,363.952 65.041,360.871 62.004 C 357.790 58.966,355.269 56.159,355.269 55.767 C 355.269 55.375,354.688 55.054,353.978 55.054 C 353.269 55.054,352.688 54.480,352.688 53.780 C 352.688 52.467,349.654 51.301,347.471 51.775 C 346.632 51.957,346.149 51.133,345.963 49.198 C 345.813 47.633,345.142 46.142,344.471 45.885 C 343.801 45.628,341.795 44.069,340.013 42.421 C 338.232 40.774,335.274 38.651,333.440 37.704 C 331.606 36.758,329.145 34.952,327.972 33.691 C 326.417 32.021,324.990 31.398,322.717 31.398 C 319.984 31.398,319.381 30.993,317.863 28.139 C 316.643 25.846,315.683 24.993,314.624 25.263 C 313.796 25.473,313.118 25.249,313.118 24.765 C 313.118 24.281,312.145 24.072,310.955 24.299 C 309.213 24.632,308.689 24.305,308.267 22.622 C 307.684 20.301,302.077 16.344,299.372 16.344 C 298.416 16.344,297.634 15.943,297.634 15.453 C 297.634 14.308,290.375 11.183,287.713 11.183 C 286.593 11.183,285.367 10.659,284.989 10.018 C 283.955 8.267,281.761 7.327,271.398 4.194 C 254.225 -0.999,241.025 0.289,217.634 9.439 C 213.140 11.197,208.797 12.873,207.984 13.162 C 206.627 13.645,209.634 25.548,211.613 27.527 C 211.849 27.763,212.101 28.731,212.171 29.677 C 212.242 30.624,212.773 34.301,213.351 37.849 C 214.098 42.430,214.479 63.761,214.665 111.398 C 214.911 174.472,215.192 185.679,216.586 187.908 C 216.899 188.408,217.255 189.459,217.377 190.244 C 218.025 194.395,221.311 201.290,222.642 201.291 C 223.581 201.291,224.130 202.055,224.212 203.476 C 224.323 205.394,227.987 209.892,229.439 209.892 C 229.732 209.892,230.626 210.484,231.424 211.207 C 232.904 212.546,243.784 214.175,251.330 214.187 C 255.780 214.194,255.588 214.501,256.838 205.385 C 257.152 203.097,257.762 201.534,258.229 201.822 C 259.446 202.574,266.290 200.477,268.112 198.793 C 270.180 196.881,270.888 196.821,292.903 196.680 C 303.312 196.614,312.338 196.230,312.961 195.827 C 313.740 195.325,314.236 195.639,314.548 196.832 C 314.798 197.787,316.224 199.061,317.716 199.662 C 319.209 200.263,321.628 201.649,323.092 202.743 C 324.556 203.836,326.520 204.731,327.458 204.731 C 328.791 204.731,329.177 205.339,329.235 207.527 C 329.276 209.065,329.584 211.602,329.920 213.166 C 331.435 220.211,324.206 222.796,302.985 222.796 C 287.556 222.796,287.857 222.745,278.925 226.864 C 271.444 230.314,246.592 228.398,230.744 223.150 C 227.308 222.012,224.142 221.177,223.708 221.293 C 223.273 221.410,222.355 220.751,221.667 219.828 C 220.830 218.704,219.389 218.151,217.305 218.151 C 215.480 218.151,214.194 217.729,214.194 217.131 C 214.194 215.888,210.453 213.333,208.632 213.333 C 207.906 213.333,207.312 212.645,207.312 211.804 C 207.312 209.829,203.683 206.585,203.176 208.106 C 202.981 208.693,201.897 206.431,200.768 203.080 L 198.717 196.986 198.484 113.332 C 198.233 23.148,198.372 25.809,193.624 20.726 C 192.270 19.276,190.937 17.504,190.662 16.787 C 190.387 16.070,189.792 15.484,189.340 15.484 C 188.889 15.484,187.380 14.419,185.988 13.118 C 180.015 7.536,160.025 -0.412,159.987 2.779 C 159.976 3.660,159.840 3.660,159.282 2.781 C 158.388 1.372,146.525 0.708,140.215 1.713 M251.239 17.235 C 252.154 17.724,252.903 18.689,252.903 19.378 C 252.903 20.067,253.677 21.114,254.624 21.705 C 255.570 22.296,256.344 23.235,256.344 23.791 C 256.344 24.348,256.719 24.932,257.177 25.090 C 258.755 25.633,258.227 30.552,255.947 36.559 C 254.690 39.871,253.429 43.355,253.145 44.301 C 252.862 45.247,251.878 46.989,250.960 48.172 C 249.299 50.312,249.300 50.324,251.095 50.597 C 252.622 50.830,252.756 51.140,251.968 52.613 C 249.500 57.224,254.100 60.095,260.156 57.723 C 262.315 56.878,265.806 57.557,265.806 58.822 C 265.806 59.365,267.336 60.472,269.206 61.282 C 271.076 62.092,273.025 63.538,273.537 64.496 C 274.922 67.082,276.120 66.606,276.197 63.441 C 276.234 61.903,276.460 61.129,276.699 61.720 C 276.937 62.312,278.068 62.796,279.211 62.796 C 281.074 62.796,281.290 63.165,281.290 66.347 L 281.290 69.897 284.731 69.347 C 287.471 68.909,288.172 69.062,288.172 70.097 C 288.172 70.813,288.625 71.398,289.180 71.398 C 290.956 71.398,293.333 74.181,293.333 76.262 C 293.333 78.730,295.493 78.953,296.745 76.613 C 297.458 75.282,298.242 75.045,300.646 75.436 C 303.055 75.827,303.656 75.644,303.656 74.521 C 303.656 73.607,304.388 73.118,305.756 73.118 C 306.911 73.118,308.058 72.791,308.305 72.391 C 309.230 70.894,329.212 70.521,332.601 71.937 C 334.330 72.659,336.446 73.067,337.303 72.843 C 338.160 72.619,339.310 72.976,339.859 73.637 C 340.407 74.298,341.196 74.839,341.611 74.839 C 342.026 74.839,343.088 75.516,343.971 76.344 C 350.146 82.136,352.070 83.441,354.438 83.441 C 356.759 83.441,356.989 83.701,356.989 86.326 C 356.989 88.211,357.735 90.015,359.140 91.532 C 360.323 92.808,361.290 94.219,361.290 94.668 C 361.290 95.117,361.629 95.484,362.043 95.484 C 362.457 95.484,363.028 96.645,363.312 98.065 C 363.679 99.900,364.325 100.645,365.548 100.645 C 366.985 100.645,367.187 101.054,366.774 103.121 C 366.501 104.482,366.652 106.321,367.108 107.207 C 370.038 112.898,359.914 127.297,352.975 127.309 C 351.950 127.310,350.978 127.710,350.816 128.198 C 350.502 129.139,347.952 127.483,344.177 123.885 C 342.944 122.710,341.645 121.839,341.290 121.949 C 340.617 122.159,340.549 121.978,340.231 119.104 C 340.035 117.332,338.261 113.484,337.273 112.688 C 336.979 112.452,336.271 111.194,335.700 109.892 C 335.128 108.591,334.072 107.527,333.352 107.527 C 332.622 107.527,332.043 106.775,332.043 105.829 C 332.043 101.607,328.585 101.093,300.085 101.084 C 285.583 101.079,273.887 100.799,274.094 100.462 C 274.825 99.272,272.474 88.466,271.393 88.051 C 270.791 87.820,270.447 86.978,270.630 86.181 C 271.614 81.882,264.462 78.841,254.395 79.280 C 250.457 79.451,247.620 79.219,247.449 78.710 C 247.280 78.203,246.573 78.335,245.731 79.030 C 244.476 80.066,244.301 79.987,244.301 78.385 C 244.301 77.381,243.844 76.559,243.286 76.559 C 242.727 76.559,240.087 74.237,237.419 71.398 C 234.740 68.547,231.825 66.237,230.908 66.237 C 229.310 66.237,229.247 65.395,229.247 43.871 L 229.247 21.506 231.828 21.407 C 233.247 21.352,235.139 21.385,236.032 21.480 C 236.926 21.576,237.911 21.242,238.222 20.738 C 238.681 19.996,241.526 18.890,249.304 16.430 C 249.453 16.383,250.324 16.745,251.239 17.235 M160.351 19.045 C 162.243 19.907,162.837 19.902,163.383 19.018 C 163.875 18.223,164.192 18.414,164.531 19.712 C 164.803 20.752,165.701 21.505,166.668 21.505 C 167.585 21.505,169.036 22.280,169.892 23.226 C 170.749 24.172,172.104 24.946,172.903 24.946 C 174.861 24.946,177.724 28.071,176.224 28.571 C 175.394 28.847,175.496 29.685,176.653 32.125 C 178.055 35.079,178.136 38.481,177.738 77.659 C 177.239 126.764,177.336 125.031,175.054 125.464 C 174.108 125.644,173.135 126.104,172.892 126.488 C 172.649 126.871,170.907 127.351,169.021 127.553 C 163.858 128.106,158.280 130.026,158.280 131.249 C 158.280 131.846,157.615 133.492,156.803 134.907 C 155.616 136.975,155.519 137.876,156.308 139.493 C 160.248 147.570,160.534 166.441,156.866 176.344 C 155.727 179.419,154.708 182.270,154.602 182.679 C 154.495 183.087,151.892 186.127,148.817 189.434 C 145.742 192.741,142.916 195.988,142.538 196.648 C 142.160 197.309,140.824 197.849,139.570 197.849 C 137.797 197.849,137.520 197.620,138.323 196.817 C 138.890 196.249,139.355 195.482,139.355 195.111 C 139.355 194.238,131.213 190.108,129.491 190.108 C 128.766 190.108,128.172 189.762,128.172 189.339 C 128.172 185.343,104.421 181.727,89.211 183.407 C 79.390 184.492,75.144 183.569,71.829 179.629 C 70.707 178.296,69.183 177.204,68.443 177.204 C 67.683 177.204,67.097 176.476,67.097 175.533 C 67.097 174.613,66.394 173.355,65.535 172.737 C 64.676 172.119,63.720 170.935,63.411 170.108 C 63.102 169.280,62.257 168.602,61.532 168.602 C 60.808 168.602,60.208 167.925,60.200 167.097 C 60.134 160.365,45.041 158.754,39.415 164.878 C 36.361 168.204,36.222 168.250,27.527 168.793 C 24.435 168.986,23.561 168.377,21.999 164.937 C 18.174 156.516,19.688 138.495,24.221 138.495 C 24.620 138.495,24.946 137.527,24.946 136.344 C 24.946 134.641,25.394 134.180,27.097 134.127 C 34.149 133.910,36.211 133.988,36.714 134.491 C 37.023 134.801,38.179 135.054,39.283 135.054 C 40.387 135.054,41.290 135.393,41.290 135.807 C 41.290 137.154,53.836 136.951,54.969 135.586 C 55.662 134.750,57.036 134.508,59.330 134.815 C 62.646 135.260,62.684 135.233,63.279 131.933 C 63.610 130.101,64.292 128.085,64.795 127.452 C 65.299 126.820,65.926 124.732,66.189 122.813 C 67.197 115.451,79.954 111.206,93.438 113.747 C 95.273 114.093,104.964 114.551,114.974 114.766 L 133.173 115.157 132.960 107.032 C 132.717 97.739,132.810 97.588,139.148 97.008 C 141.637 96.781,144.378 95.957,145.240 95.177 C 147.351 93.267,147.957 94.135,147.957 99.068 C 147.957 102.221,148.274 103.226,149.269 103.226 C 150.038 103.226,150.794 104.293,151.097 105.806 C 151.703 108.836,151.626 108.819,155.792 106.882 C 160.359 104.759,160.909 103.019,159.122 96.344 C 156.802 87.677,156.532 83.433,157.889 76.945 C 159.815 67.741,159.261 58.495,156.785 58.495 C 156.000 58.495,155.707 57.993,156.018 57.182 C 156.328 56.377,155.617 55.132,154.178 53.957 C 152.889 52.904,149.663 49.817,147.010 47.097 C 142.337 42.306,140.215 41.075,140.215 43.154 C 140.215 43.706,139.966 43.909,139.662 43.605 C 139.358 43.301,139.566 42.503,140.123 41.831 C 140.881 40.918,140.908 39.179,140.231 34.938 C 138.948 26.904,140.203 22.240,144.156 20.355 C 145.774 19.584,147.097 18.503,147.097 17.954 C 147.097 16.685,156.953 17.497,160.351 19.045 M287.382 29.247 C 289.040 29.247,289.892 29.685,289.892 30.538 C 289.892 31.398,290.753 31.828,292.473 31.828 C 294.621 31.828,295.054 32.173,295.054 33.885 C 295.054 36.080,299.416 38.096,300.050 36.194 C 300.747 34.104,301.566 35.473,301.248 38.195 C 300.970 40.576,301.243 41.228,302.711 41.694 C 303.704 42.009,304.516 42.782,304.516 43.411 C 304.516 44.041,305.479 46.240,306.656 48.299 C 309.775 53.755,308.652 62.198,304.780 62.402 C 304.398 62.422,302.605 62.946,300.796 63.566 C 298.986 64.185,296.567 64.513,295.419 64.293 C 294.272 64.074,293.333 64.250,293.333 64.684 C 293.333 65.119,292.473 64.871,291.422 64.135 C 290.370 63.398,288.809 62.796,287.954 62.796 C 287.098 62.796,286.169 62.201,285.890 61.474 C 284.936 58.986,280.300 57.193,279.093 58.844 C 278.166 60.111,278.009 60.058,277.557 58.330 C 277.273 57.243,277.508 56.104,278.097 55.712 C 278.855 55.208,278.611 54.575,277.204 53.393 C 276.140 52.499,275.269 51.345,275.269 50.830 C 275.269 50.314,274.908 49.892,274.467 49.892 C 274.025 49.892,273.419 49.118,273.118 48.172 C 272.818 47.226,271.989 46.452,271.275 46.452 C 270.198 46.452,270.025 45.204,270.258 39.115 L 270.538 31.778 273.548 31.000 C 275.204 30.573,277.914 29.850,279.570 29.394 C 281.226 28.939,283.096 28.719,283.726 28.907 C 284.356 29.094,286.002 29.247,287.382 29.247 M122.382 32.258 C 123.848 33.914,125.557 35.269,126.180 35.269 C 127.618 35.269,127.661 36.723,126.237 37.224 C 125.465 37.496,125.680 38.319,126.996 40.136 L 128.831 42.669 126.996 44.509 C 125.987 45.520,123.954 47.630,122.478 49.196 C 121.002 50.762,117.421 54.320,114.521 57.102 C 111.620 59.884,109.247 62.520,109.247 62.959 C 109.247 63.398,108.901 63.544,108.478 63.282 C 108.056 63.021,106.386 63.360,104.768 64.036 C 98.842 66.512,86.518 61.850,85.686 56.818 C 84.874 51.912,85.041 51.107,87.353 48.796 C 89.008 47.141,89.273 46.436,88.437 45.919 C 87.657 45.437,87.963 45.084,89.471 44.726 C 90.941 44.376,91.620 43.621,91.637 42.317 C 91.654 40.989,92.689 39.880,95.078 38.630 C 96.957 37.646,99.579 35.713,100.904 34.334 C 102.229 32.956,103.990 31.828,104.818 31.828 C 105.645 31.828,106.690 31.468,107.140 31.029 C 107.955 30.232,111.418 29.646,116.848 29.385 C 119.137 29.275,120.255 29.856,122.382 32.258 M149.032 56.753 C 149.941 56.766,150.538 57.435,150.538 58.444 C 150.538 59.362,150.925 60.353,151.398 60.645 C 152.411 61.271,152.570 68.542,151.579 68.961 C 151.206 69.118,150.072 71.183,149.060 73.548 C 148.048 75.914,146.902 77.869,146.513 77.893 C 137.462 78.456,126.902 87.547,128.704 93.225 C 129.214 94.832,129.118 94.905,127.864 93.865 C 126.606 92.821,126.233 93.157,124.515 96.883 L 122.581 101.075 96.774 101.075 C 68.007 101.075,67.920 101.087,62.926 105.463 C 59.890 108.126,59.355 109.094,59.355 111.932 C 59.355 114.237,58.978 115.269,58.136 115.269 C 57.466 115.269,56.722 115.753,56.484 116.344 C 56.245 116.935,55.999 116.645,55.938 115.699 C 55.863 114.549,55.364 115.119,54.432 117.419 C 52.061 123.278,43.011 130.775,43.011 126.882 C 43.011 125.704,41.801 125.253,38.925 125.360 C 38.333 125.382,37.849 124.956,37.849 124.412 C 37.849 122.789,34.460 121.158,32.426 121.804 C 30.766 122.331,30.685 122.237,31.720 120.990 C 32.710 119.798,32.687 119.151,31.570 116.780 C 29.324 112.012,28.907 107.873,30.452 105.668 C 31.209 104.587,31.828 103.047,31.828 102.246 C 31.828 101.444,32.118 100.659,32.473 100.502 C 33.956 99.843,36.989 94.537,36.989 92.601 C 36.989 91.080,37.584 90.360,39.169 89.962 C 40.413 89.650,41.777 88.409,42.345 87.073 C 43.556 84.228,46.346 81.765,48.387 81.740 C 49.319 81.728,49.892 81.057,49.892 79.978 C 49.892 78.734,50.624 78.090,52.454 77.724 C 53.863 77.443,55.458 76.678,56.000 76.025 C 56.542 75.373,57.712 74.839,58.600 74.839 C 59.488 74.839,60.215 74.514,60.215 74.116 C 60.215 73.418,66.023 72.255,77.204 70.714 C 80.161 70.306,82.581 70.219,82.581 70.519 C 82.581 70.820,85.290 71.769,88.602 72.628 C 91.914 73.487,94.624 74.488,94.624 74.852 C 94.624 75.217,97.002 75.934,99.909 76.446 C 102.816 76.958,105.846 77.967,106.643 78.689 C 108.776 80.619,111.274 80.403,110.733 78.335 C 110.471 77.332,110.812 76.473,111.591 76.174 C 112.333 75.889,112.709 75.013,112.475 74.115 C 111.935 72.050,113.390 70.301,116.559 69.206 C 118.402 68.568,119.121 67.778,119.074 66.442 C 119.029 65.136,119.870 64.162,121.858 63.218 C 123.426 62.474,125.087 61.158,125.549 60.294 C 126.012 59.429,127.662 58.409,129.217 58.026 C 130.771 57.644,133.011 57.072,134.194 56.756 C 135.376 56.440,138.860 56.305,141.935 56.456 C 145.011 56.607,148.204 56.741,149.032 56.753 M234.163 84.424 C 234.407 85.156,234.981 85.145,236.403 84.385 C 238.961 83.016,240.046 83.855,239.466 86.756 C 238.940 89.388,242.598 91.183,248.487 91.183 C 250.220 91.183,251.183 91.611,251.183 92.383 C 251.183 93.044,253.056 94.786,255.346 96.256 C 257.637 97.725,259.926 99.840,260.434 100.954 C 260.971 102.135,262.376 103.186,263.797 103.472 C 266.053 103.926,266.238 104.265,266.262 107.983 C 266.304 114.690,266.010 114.623,293.548 114.218 C 306.677 114.025,317.419 114.183,317.419 114.568 C 317.419 114.954,317.953 115.269,318.604 115.269 C 319.921 115.269,322.090 117.554,322.187 119.041 C 322.285 120.557,323.669 123.360,324.783 124.301 C 327.712 126.774,326.786 128.804,322.497 129.312 C 316.436 130.030,314.559 131.240,315.247 133.984 C 315.744 135.963,315.650 136.084,314.420 135.063 C 312.331 133.329,310.662 135.493,308.739 142.428 C 307.848 145.642,306.630 148.608,306.032 149.018 C 303.171 150.984,281.901 147.286,279.570 144.417 C 276.250 140.332,258.405 142.597,257.481 147.220 C 257.073 149.260,256.556 149.677,254.441 149.677 C 251.916 149.677,251.898 149.712,252.525 153.333 C 252.874 155.344,253.106 157.376,253.041 157.849 C 251.995 165.483,252.329 172.609,253.832 174.720 C 254.741 175.996,255.484 177.683,255.484 178.469 C 255.484 179.522,256.109 179.827,257.849 179.627 L 260.215 179.355 260.301 170.525 L 260.388 161.695 263.736 158.801 C 267.080 155.910,267.088 155.908,270.961 157.118 C 275.257 158.460,313.638 159.844,317.772 158.806 C 319.966 158.255,320.100 157.975,319.595 154.988 C 316.888 138.967,321.505 135.493,343.746 136.817 C 350.877 137.241,353.434 137.106,354.437 136.250 C 357.047 134.024,369.478 133.690,371.283 135.798 C 372.148 136.808,373.737 137.634,374.815 137.634 C 375.892 137.634,376.820 138.118,376.876 138.710 C 376.931 139.301,377.147 140.946,377.354 142.366 C 378.321 148.990,377.950 164.150,376.796 165.161 C 376.525 165.398,375.627 166.656,374.799 167.957 C 373.142 170.561,368.091 171.260,364.565 169.374 C 363.204 168.645,362.617 168.695,362.041 169.589 C 361.467 170.479,361.166 170.299,360.761 168.822 C 359.376 163.770,344.390 159.710,338.065 162.674 C 330.330 166.299,330.323 166.305,330.323 169.328 C 330.323 171.930,330.531 172.189,332.258 171.732 C 336.296 170.665,345.866 172.204,348.387 174.326 C 349.706 175.436,351.381 176.344,352.107 176.344 C 352.834 176.344,353.552 177.215,353.704 178.280 C 353.880 179.523,354.670 180.313,355.914 180.490 C 356.978 180.641,357.849 181.119,357.849 181.552 C 357.849 181.985,359.011 184.227,360.430 186.534 C 363.721 191.882,364.097 197.849,361.143 197.849 C 359.222 197.849,356.129 200.089,356.129 201.479 C 356.129 201.910,354.968 203.239,353.548 204.433 C 352.129 205.627,350.968 207.174,350.968 207.869 C 350.968 208.565,350.625 208.922,350.205 208.662 C 349.785 208.403,348.964 208.767,348.379 209.472 C 346.995 211.140,345.806 211.105,345.806 209.396 C 345.806 206.657,331.102 192.828,324.731 189.575 C 315.333 184.777,310.546 184.116,285.161 184.114 C 261.309 184.112,261.216 184.126,260.331 187.742 C 259.885 189.566,259.214 190.130,257.403 190.207 C 254.053 190.348,253.692 190.427,250.108 191.799 C 248.333 192.478,246.882 193.525,246.882 194.124 C 246.882 194.724,246.398 195.066,245.806 194.884 C 245.215 194.701,243.715 194.331,242.472 194.061 C 239.512 193.416,232.424 186.386,231.734 183.409 C 231.437 182.125,230.730 180.301,230.164 179.355 C 225.494 171.549,224.291 157.128,227.541 147.916 C 228.243 145.927,228.817 143.140,228.817 141.722 C 228.817 139.563,229.021 139.313,230.070 140.184 C 230.759 140.756,231.727 140.974,232.220 140.668 C 232.714 140.363,233.118 140.523,233.118 141.025 C 233.118 142.154,236.588 142.209,239.440 141.125 C 243.034 139.758,243.125 137.155,239.710 133.375 C 238.055 131.543,236.224 129.139,235.641 128.033 C 235.058 126.927,234.346 125.828,234.058 125.591 C 230.792 122.908,228.700 102.134,230.518 90.446 C 231.521 84.001,233.134 81.337,234.163 84.424 M178.571 138.065 C 178.868 139.247,179.456 140.215,179.878 140.215 C 180.300 140.215,180.645 140.957,180.645 141.864 C 180.645 142.771,181.449 145.384,182.431 147.671 C 186.923 158.129,188.571 168.678,188.038 183.568 C 187.443 200.214,187.280 202.151,186.474 202.151 C 185.002 202.151,183.026 207.517,184.220 208.273 C 185.071 208.812,184.900 209.009,183.574 209.019 C 181.484 209.034,179.414 211.073,178.172 214.342 C 177.556 215.961,176.838 216.517,175.735 216.229 C 174.876 216.004,171.467 217.294,168.161 219.095 C 154.900 226.320,124.536 229.739,115.434 225.032 C 113.509 224.036,109.542 223.693,98.818 223.596 C 79.014 223.415,69.093 221.684,59.164 216.676 C 53.258 213.697,53.470 213.715,52.500 216.129 C 51.825 217.809,51.715 217.638,51.667 214.839 C 51.637 213.065,51.323 211.602,50.968 211.588 C 50.613 211.575,48.595 210.027,46.483 208.148 C 44.371 206.269,42.145 204.731,41.537 204.731 C 40.928 204.731,40.418 204.247,40.403 203.656 C 40.351 201.584,36.245 197.849,34.020 197.849 C 31.809 197.849,30.882 195.727,32.812 195.084 C 34.074 194.664,32.210 188.412,30.391 186.964 C 29.570 186.310,29.456 185.779,30.056 185.408 C 30.557 185.098,30.968 183.962,30.968 182.883 C 30.968 181.444,31.881 180.484,34.399 179.278 C 36.286 178.374,37.834 177.196,37.840 176.659 C 37.845 176.123,38.624 175.482,39.570 175.235 C 40.516 174.987,41.290 174.168,41.290 173.414 C 41.290 172.000,42.048 171.740,45.376 172.009 C 46.629 172.111,47.312 171.689,47.312 170.814 C 47.312 168.462,48.872 169.353,49.462 172.043 C 49.774 173.462,50.380 174.624,50.809 174.624 C 51.239 174.624,52.170 176.013,52.880 177.712 C 53.590 179.410,54.950 181.004,55.902 181.253 C 56.855 181.502,57.634 182.242,57.634 182.896 C 57.634 183.551,58.022 184.086,58.495 184.086 C 58.968 184.086,59.355 184.653,59.355 185.346 C 59.355 186.945,62.120 188.452,64.540 188.172 C 65.979 188.005,66.622 188.633,67.392 190.957 C 68.004 192.802,69.048 194.084,70.104 194.287 C 71.048 194.468,72.692 195.301,73.757 196.139 C 75.952 197.866,91.214 197.889,101.075 196.181 C 104.461 195.595,106.335 195.580,106.523 196.138 C 106.681 196.606,107.916 196.989,109.268 196.989 C 110.620 196.989,111.966 197.376,112.258 197.849 C 112.550 198.323,113.541 198.710,114.459 198.710 C 115.378 198.710,116.129 199.060,116.129 199.489 C 116.129 200.290,123.253 203.011,125.352 203.011 C 125.998 203.011,127.570 203.978,128.846 205.161 C 130.183 206.401,132.195 207.312,133.598 207.312 C 135.667 207.312,135.945 207.578,135.464 209.095 C 134.527 212.048,137.223 213.275,144.714 213.306 C 150.988 213.332,158.280 211.519,158.280 209.933 C 158.280 209.585,159.247 208.175,160.429 206.800 C 162.968 203.848,163.120 202.563,161.075 201.322 C 159.815 200.557,159.976 200.445,162.067 200.634 C 164.889 200.890,166.301 198.174,168.765 187.749 C 170.412 180.781,170.452 152.903,168.817 151.269 C 168.226 150.677,167.742 149.318,167.742 148.247 C 167.742 147.176,166.973 144.350,166.034 141.967 L 164.326 137.634 169.045 137.634 C 171.640 137.634,173.763 137.247,173.763 136.774 C 173.763 134.773,178.033 135.919,178.571 138.065 M193.548 189.220 C 193.548 191.901,193.271 192.528,192.258 192.139 C 190.859 191.602,190.710 190.727,191.510 187.742 C 192.342 184.635,193.548 185.510,193.548 189.220 M206.651 237.640 C 207.989 237.656,210.185 238.725,211.752 240.124 C 213.265 241.475,214.826 242.581,215.221 242.581 C 216.672 242.581,221.258 248.306,223.489 252.903 C 225.777 257.621,227.404 276.989,225.511 276.989 C 224.519 276.989,219.355 284.586,219.355 286.047 C 219.355 286.743,218.633 287.312,217.750 287.312 C 216.868 287.312,215.223 288.014,214.095 288.872 C 209.427 292.423,205.349 293.636,198.710 293.449 C 186.746 293.112,185.154 292.932,185.529 291.955 C 185.981 290.777,181.765 287.910,180.621 288.617 C 180.161 288.901,179.785 288.724,179.785 288.223 C 179.785 287.722,179.204 287.312,178.495 287.312 C 177.785 287.312,177.204 286.934,177.204 286.473 C 177.204 286.012,175.987 283.012,174.499 279.806 C 170.343 270.853,170.543 250.323,174.786 250.323 C 175.802 250.323,175.642 244.501,174.610 243.862 C 174.129 243.565,173.953 242.970,174.219 242.539 C 174.499 242.087,175.361 242.166,176.258 242.726 C 178.052 243.847,183.226 242.037,183.226 240.288 C 183.226 239.153,186.196 238.352,192.235 237.860 C 194.475 237.678,196.557 237.274,196.863 236.964 C 197.169 236.653,198.968 236.672,200.860 237.005 C 202.753 237.339,205.359 237.624,206.651 237.640 " stroke="none" fill="#000000" fill-rule="evenodd"></path></g></svg>